<svg xmlns="http://www.w3.org/2000/svg" version="1.1" xmlns:xlink="http://www.w3.org/1999/xlink" xmlns:svgjs="http://svgjs.dev/svgjs" width="1440" height="250" preserveAspectRatio="none" viewBox="0 0 1440 250"><g mask="url(&quot;#SvgjsMask1012&quot;)" fill="none"><path d="M28 250L278 0L485 0L235 250z" fill="url(&quot;#SvgjsLinearGradient1013&quot;)"></path><path d="M279.6 250L529.6 0L609.1 0L359.1 250z" fill="url(&quot;#SvgjsLinearGradient1013&quot;)"></path><path d="M510.20000000000005 250L760.2 0L967.2 0L717.2 250z" fill="url(&quot;#SvgjsLinearGradient1013&quot;)"></path><path d="M721.8000000000001 250L971.8000000000001 0L1255.3000000000002 0L1005.3000000000001 250z" fill="url(&quot;#SvgjsLinearGradient1013&quot;)"></path><path d="M1422 250L1172 0L1106 0L1356 250z" fill="url(&quot;#SvgjsLinearGradient1014&quot;)"></path><path d="M1172.4 250L922.4000000000001 0L581.9000000000001 0L831.9000000000001 250z" fill="url(&quot;#SvgjsLinearGradient1014&quot;)"></path><path d="M955.8 250L705.8 0L404.29999999999995 0L654.3 250z" fill="url(&quot;#SvgjsLinearGradient1014&quot;)"></path><path d="M720.1999999999999 250L470.19999999999993 0L293.19999999999993 0L543.1999999999999 250z" fill="url(&quot;#SvgjsLinearGradient1014&quot;)"></path><path d="M1294.8331038770855 250L1440 104.83310387708545L1440 250z" fill="url(&quot;#SvgjsLinearGradient1013&quot;)"></path><path d="M0 250L145.16689612291455 250L 0 104.83310387708545z" fill="url(&quot;#SvgjsLinearGradient1014&quot;)"></path></g><defs><mask id="SvgjsMask1012"><rect width="1440" height="250" fill="#ffffff"></rect></mask><linearGradient x1="0%" y1="100%" x2="100%" y2="0%" id="SvgjsLinearGradient1013"><stop stop-color="rgba(66, 165, 240, 0.76)" offset="0"></stop><stop stop-opacity="0" stop-color="rgba(66, 165, 240, 0.76)" offset="0.66"></stop></linearGradient><linearGradient x1="100%" y1="100%" x2="0%" y2="0%" id="SvgjsLinearGradient1014"><stop stop-color="rgba(66, 165, 240, 0.76)" offset="0"></stop><stop stop-opacity="0" stop-color="rgba(66, 165, 240, 0.76)" offset="0.66"></stop></linearGradient></defs></svg>